<?xml version="1.0" standalone="no"?>
<!DOCTYPE svg PUBLIC "-//W3C//DTD SVG 20010904//EN"
 "http://www.w3.org/TR/2001/REC-SVG-20010904/DTD/svg10.dtd">
<svg version="1.0" xmlns="http://www.w3.org/2000/svg"
 width="308.000000pt" height="308.000000pt" viewBox="0 0 308.000000 308.000000"
 preserveAspectRatio="xMidYMid meet">
<metadata>
Created by potrace 1.11, written by Peter Selinger 2001-2013
</metadata>
<g transform="translate(0.000000,308.000000) scale(0.100000,-0.100000)"
fill="#000000" stroke="none">
<path d="M0 1545 c0 -663 2 -1205 4 -1205 4 0 140 52 421 163 264 103 880 345
995 390 63 25 356 139 650 255 294 116 630 247 745 292 116 45 221 88 234 95
l25 12 -25 8 c-13 4 -121 46 -239 92 -118 47 -264 104 -325 128 -60 23 -391
153 -735 288 -344 135 -854 335 -1135 445 -280 110 -534 209 -562 221 l-53 21
0 -1205z m575 935 c226 -88 489 -192 585 -230 163 -64 339 -133 555 -217 50
-19 187 -73 305 -120 118 -46 262 -102 320 -125 58 -22 123 -48 145 -57 22
-10 138 -55 257 -102 119 -46 214 -86 210 -90 -4 -3 -63 -27 -132 -53 -69 -26
-134 -52 -145 -57 -11 -5 -159 -63 -330 -130 -390 -152 -358 -140 -1412 -553
-486 -190 -885 -346 -888 -346 -3 0 -5 515 -5 1145 l0 1144 63 -24 c34 -13
246 -96 472 -185z"/>
<path d="M1010 2180 c0 -30 36 -96 62 -114 12 -9 18 -16 12 -16 -6 0 -23 11
-38 25 -48 45 -77 55 -117 41 -20 -7 -49 -11 -65 -9 l-29 3 23 -19 c24 -21 10
-35 -20 -19 -31 16 -10 -17 24 -36 23 -14 54 -19 122 -21 89 -2 126 -9 126
-25 0 -4 -17 -7 -37 -6 -52 3 -58 -2 -28 -26 32 -25 94 -34 134 -20 28 10 34
8 61 -21 16 -18 30 -36 30 -41 0 -5 7 -18 17 -28 9 -10 13 -21 9 -26 -7 -7
-31 18 -69 72 -25 36 -37 32 -37 -12 0 -41 42 -118 78 -144 13 -9 24 -33 31
-72 6 -32 22 -82 37 -111 16 -34 24 -65 22 -87 l-3 -33 -22 38 c-19 32 -26 57
-33 122 0 6 -10 -1 -20 -14 -23 -27 -24 -57 -6 -126 12 -43 12 -53 0 -73 -8
-12 -17 -41 -19 -63 -2 -22 -11 -49 -20 -61 -15 -22 -15 -22 -15 12 l0 35 -36
-40 c-19 -22 -47 -64 -60 -94 -31 -67 -44 -77 -114 -92 -30 -6 -81 -22 -112
-34 -39 -16 -58 -20 -59 -12 -5 58 23 127 51 127 11 0 21 -1 23 -2 1 -1 21 8
43 21 42 24 64 55 64 91 0 26 -6 25 -36 -5 -23 -23 -34 -30 -34 -21 0 2 14 20
30 41 21 26 30 49 30 73 l0 35 -35 -39 -34 -39 -1 33 c0 21 -5 32 -14 32 -24
0 -64 -62 -72 -108 -7 -44 -24 -58 -25 -19 0 12 -8 52 -18 90 -15 59 -16 70
-3 88 13 18 21 20 76 15 70 -7 102 5 125 46 19 34 9 45 -21 24 -25 -18 -88
-22 -88 -6 0 6 5 10 10 10 16 0 50 62 50 91 0 15 -6 32 -14 38 -11 9 -16 5
-25 -18 -7 -16 -25 -41 -41 -56 l-29 -27 -6 36 c-4 20 -5 46 -2 58 10 38 -17
1 -36 -50 l-17 -47 5 53 c8 77 22 95 65 87 80 -15 141 7 148 54 3 20 1 21 -18
11 -51 -27 -59 -19 -20 19 26 24 40 47 40 63 0 36 -10 40 -32 13 -18 -23 -48
-34 -48 -17 0 4 9 22 20 40 26 42 26 42 -11 32 -40 -12 -65 -35 -74 -67 -8
-33 -13 -27 -23 29 -7 33 -5 50 5 63 27 38 3 105 -39 105 -18 0 -20 -4 -15
-36 5 -31 4 -34 -13 -29 -40 13 -63 14 -82 4 -19 -10 -19 -12 -5 -27 10 -9 31
-15 57 -14 27 1 39 -2 34 -9 -3 -6 -24 -9 -45 -7 -22 2 -39 1 -39 -3 0 -15 41
-40 73 -46 30 -4 36 -10 40 -36 5 -38 -7 -84 -31 -115 l-18 -23 -2 37 c-3 45
-36 94 -63 94 -22 0 -24 -12 -8 -42 22 -40 1 -27 -30 19 l-31 48 0 -43 c0 -23
7 -59 15 -79 20 -47 10 -56 -20 -19 l-24 30 9 -35 c18 -70 23 -80 51 -95 16
-8 42 -12 59 -9 l30 5 0 -104 0 -104 -55 54 c-76 74 -97 70 -54 -10 l21 -39
-46 27 c-25 15 -46 22 -46 15 0 -21 32 -64 68 -92 44 -34 20 -36 -31 -2 l-37
26 0 -23 c0 -31 24 -65 60 -83 33 -17 102 -20 131 -5 17 10 19 7 20 -22 0 -18
3 -75 6 -127 5 -89 4 -93 -14 -86 -10 4 -45 14 -78 22 -94 23 -176 95 -214
191 -8 17 -18 32 -23 32 -6 0 -8 -7 -4 -15 13 -34 -5 -11 -29 38 -37 74 -45
78 -46 27 l-1 -45 -11 33 c-7 24 -7 43 4 75 17 54 17 62 1 122 -8 28 -14 56
-15 63 -1 19 -17 14 -18 -5 0 -10 -7 -36 -14 -58 l-14 -40 5 50 c3 27 14 70
25 94 10 24 19 58 19 75 l0 31 -20 -32 c-23 -39 -33 -43 -20 -8 16 43 40 72
79 99 50 35 78 86 65 117 -10 22 -12 21 -54 -32 -29 -37 -40 -46 -35 -29 22
73 99 127 185 131 40 2 110 22 110 32 0 2 -21 3 -46 2 -38 -2 -44 0 -32 11 7
8 44 15 86 18 63 4 122 24 122 41 0 3 -29 2 -65 -1 -86 -8 -85 9 3 32 95 25
137 43 125 55 -27 27 -138 9 -228 -38 l-49 -25 32 36 c57 65 35 76 -41 20 -26
-19 -67 -60 -90 -91 -42 -55 -147 -171 -132 -144 4 7 15 48 24 91 l17 78 -21
-10 c-52 -24 -85 -118 -85 -246 0 -73 -7 -78 -16 -11 -4 24 -11 55 -16 69 -9
24 -10 24 -23 6 -8 -10 -17 -43 -21 -72 -9 -74 5 -246 23 -278 4 -8 2 -8 -5
-1 -6 6 -19 33 -30 60 l-20 50 -9 -35 c-20 -72 10 -162 89 -273 27 -38 41 -64
31 -58 -23 13 -90 77 -125 121 -32 39 -36 26 -12 -44 21 -61 91 -130 183 -181
39 -21 70 -40 68 -41 -1 -2 -21 3 -42 11 -47 17 -111 19 -120 5 -3 -5 0 -10 7
-10 28 -1 125 -48 170 -82 26 -20 63 -42 83 -48 41 -13 43 -14 105 -24 25 -4
54 -9 65 -11 11 -2 34 -4 50 -5 l30 -1 -27 -16 c-22 -14 -48 -51 -48 -68 0 -3
59 -5 130 -5 146 0 156 6 101 61 -16 16 -29 29 -28 30 6 3 41 7 96 13 36 4 67
9 70 10 3 2 22 7 43 10 74 12 210 68 251 104 18 16 18 17 0 23 -9 3 -32 3 -50
-2 -18 -4 -33 -6 -33 -4 0 2 20 15 45 29 112 66 215 196 215 270 l0 31 -26
-40 c-35 -52 -62 -82 -98 -108 -32 -23 -31 -20 26 64 78 116 98 202 58 250
l-19 24 -1 -25 c0 -14 -12 -43 -26 -65 -27 -42 -27 -38 4 67 27 95 24 199 -8
258 l-25 45 -5 -67 c-3 -36 -8 -69 -11 -73 -4 -3 -9 26 -13 65 -9 85 -29 146
-58 177 -33 35 -50 31 -34 -9 7 -18 16 -53 20 -78 l6 -45 -21 25 c-119 143
-222 250 -257 269 -19 10 -22 9 -22 -9z"/>
</g>
</svg>
